<svg width="284" height="274" viewBox="0 0 284 274" fill="none" xmlns="http://www.w3.org/2000/svg">
<line x1="146.551" y1="10.285" x2="220.445" y2="40.9381" stroke="#8B89FF" stroke-width="4"/>
<line x1="118.255" y1="189.268" x2="182.92" y2="119.673" stroke="#8B89FF" stroke-width="4"/>
<line x1="104.025" y1="107.947" x2="108.084" y2="173.822" stroke="#8B89FF" stroke-width="4" stroke-linecap="round"/>
<line x1="36.9787" y1="125.333" x2="91.6929" y2="98.3638" stroke="#8B89FF" stroke-width="4" stroke-linecap="round"/>
<line x1="131.974" y1="188.476" x2="204.751" y2="160.413" stroke="#8B89FF" stroke-width="4" stroke-linecap="round"/>
<line x1="19.5922" y1="147.567" x2="49.3698" y2="219.659" stroke="#8B89FF" stroke-width="4"/>
<line x1="60.4822" y1="166.712" x2="98.7263" y2="190.426" stroke="#8B89FF" stroke-width="4"/>
<line x1="54.0694" y1="182.472" x2="52.4947" y2="216.435" stroke="#8B89FF" stroke-width="4" stroke-linecap="round"/>
<line x1="201.484" y1="174.233" x2="148.264" y2="254.131" stroke="#8B89FF" stroke-width="4" stroke-linecap="round"/>
<line x1="120.196" y1="219.147" x2="136.848" y2="253.304" stroke="#8B89FF" stroke-width="4" stroke-linecap="round"/>
<line x1="196.126" y1="130.086" x2="207.297" y2="150.191" stroke="#8B89FF" stroke-width="4" stroke-linecap="round"/>
<line x1="229.165" y1="151.345" x2="255.042" y2="140.65" stroke="#8B89FF" stroke-width="4" stroke-linecap="round"/>
<line x1="259.628" y1="158.207" x2="237.107" y2="212.739" stroke="#8B89FF" stroke-width="4" stroke-linecap="round"/>
<line x1="214.276" y1="165.15" x2="228.197" y2="213.173" stroke="#8B89FF" stroke-width="4"/>
<line x1="161.497" y1="255.01" x2="217.957" y2="231.917" stroke="#8B89FF" stroke-width="4" stroke-linecap="round"/>
<line x1="67.2059" y1="232.235" x2="132.84" y2="259.312" stroke="#8B89FF" stroke-width="4" stroke-linecap="round"/>
<line x1="97.8896" y1="203.603" x2="63.5928" y2="219.966" stroke="#8B89FF" stroke-width="4"/>
<line x1="27.1862" y1="143.963" x2="40.1542" y2="153.335" stroke="#8B89FF" stroke-width="4" stroke-linecap="round"/>
<line x1="59.0228" y1="157.216" x2="89.2773" y2="113.7" stroke="#8B89FF" stroke-width="4" stroke-linecap="round"/>
<line x1="113.717" y1="96.3953" x2="181.483" y2="113.94" stroke="#8B89FF" stroke-width="4"/>
<line x1="193.64" y1="116.49" x2="256.596" y2="132.665" stroke="#8B89FF" stroke-width="4"/>
<line x1="241.434" y1="68.2989" x2="263.349" y2="121.999" stroke="#8B89FF" stroke-width="4" stroke-linecap="round"/>
<line x1="224.185" y1="58.4948" x2="196.872" y2="100.376" stroke="#8B89FF" stroke-width="4" stroke-linecap="round"/>
<line x1="148.623" y1="24.6829" x2="184.923" y2="108.13" stroke="#8B89FF" stroke-width="4" stroke-linecap="round"/>
<line x1="138.119" y1="17.1463" x2="113.606" y2="70.8128" stroke="#8B89FF" stroke-width="4" stroke-linecap="round"/>
<line x1="65.6593" y1="58.7689" x2="92.3204" y2="82.9595" stroke="#8B89FF" stroke-width="4" stroke-linecap="round"/>
<line x1="50.0286" y1="51.1019" x2="19.5645" y2="125.074" stroke="#8B89FF" stroke-width="4"/>
<line x1="55.1182" y1="45.1437" x2="125.233" y2="15.8192" stroke="#8B89FF" stroke-width="4" stroke-linecap="round"/>
<circle cx="141.5" cy="8.5" r="8.5" fill="#4200FF"/>
<circle cx="51.5" cy="45.5" r="8.5" fill="#4200FF"/>
<circle cx="187.5" cy="115.5" r="8.5" fill="#4200FF"/>
<circle cx="211.5" cy="157.5" r="8.5" fill="#4200FF"/>
<circle cx="54.5" cy="163.5" r="8.5" fill="#4200FF"/>
<circle cx="142" cy="263" r="11" fill="#4200FF"/>
<circle cx="53.5" cy="225.5" r="8.5" fill="#4200FF"/>
<path d="M247 46C247 54.2843 240.284 61 232 61C223.716 61 217 54.2843 217 46C217 37.7157 223.716 31 232 31C240.284 31 247 37.7157 247 46ZM225.629 46C225.629 49.5184 228.482 52.3707 232 52.3707C235.518 52.3707 238.371 49.5184 238.371 46C238.371 42.4816 235.518 39.6293 232 39.6293C228.482 39.6293 225.629 42.4816 225.629 46Z" fill="#4200FF"/>
<path d="M30 136C30 144.284 23.2843 151 15 151C6.71573 151 0 144.284 0 136C0 127.716 6.71573 121 15 121C23.2843 121 30 127.716 30 136ZM8.62932 136C8.62932 139.518 11.4816 142.371 15 142.371C18.5184 142.371 21.3707 139.518 21.3707 136C21.3707 132.482 18.5184 129.629 15 129.629C11.4816 129.629 8.62932 132.482 8.62932 136Z" fill="#4200FF"/>
<path d="M118 93C118 101.284 111.284 108 103 108C94.7157 108 88 101.284 88 93C88 84.7157 94.7157 78 103 78C111.284 78 118 84.7157 118 93ZM96.6293 93C96.6293 96.5184 99.4816 99.3707 103 99.3707C106.518 99.3707 109.371 96.5184 109.371 93C109.371 89.4816 106.518 86.6293 103 86.6293C99.4816 86.6293 96.6293 89.4816 96.6293 93Z" fill="#4200FF"/>
<path d="M125 197C125 205.284 118.284 212 110 212C101.716 212 95 205.284 95 197C95 188.716 101.716 182 110 182C118.284 182 125 188.716 125 197ZM103.629 197C103.629 200.518 106.482 203.371 110 203.371C113.518 203.371 116.371 200.518 116.371 197C116.371 193.482 113.518 190.629 110 190.629C106.482 190.629 103.629 193.482 103.629 197Z" fill="#4200FF"/>
<path d="M247 226C247 234.284 240.284 241 232 241C223.716 241 217 234.284 217 226C217 217.716 223.716 211 232 211C240.284 211 247 217.716 247 226ZM225.629 226C225.629 229.518 228.482 232.371 232 232.371C235.518 232.371 238.371 229.518 238.371 226C238.371 222.482 235.518 219.629 232 219.629C228.482 219.629 225.629 222.482 225.629 226Z" fill="#4200FF"/>
<path d="M284 136C284 144.284 277.284 151 269 151C260.716 151 254 144.284 254 136C254 127.716 260.716 121 269 121C277.284 121 284 127.716 284 136ZM262.629 136C262.629 139.518 265.482 142.371 269 142.371C272.518 142.371 275.371 139.518 275.371 136C275.371 132.482 272.518 129.629 269 129.629C265.482 129.629 262.629 132.482 262.629 136Z" fill="#4200FF"/>
</svg>
